<?xml version="1.0" encoding="utf-8"?>
<!-- Generator: Adobe Illustrator 27.7.0, SVG Export Plug-In . SVG Version: 6.00 Build 0)  -->
<svg version="1.1" id="Layer_1" xmlns="http://www.w3.org/2000/svg" xmlns:xlink="http://www.w3.org/1999/xlink" x="0px" y="0px"
	 viewBox="0 0 192 192.1" style="enable-background:new 0 0 192 192.1;" xml:space="preserve">
<style type="text/css">
	.st0{fill:#4285F4;}
</style>
<path class="st0" d="M97.1,0C56.2,0,31.7,33.9,34.3,67c1.2,15,8.5,29.5,20.7,40.8c4.5,4.2,9.4,7.7,14.5,10.4
	c-3.9-4.6-6.6-10.3-7.6-16.6C59.1,85,70.1,60.5,98.2,60.5c30.2,0,63.4,28.7,66.2,64c1.7,21.6-6.5,41.1-20.3,54.6
	c28.7-16.6,47.9-47.6,47.9-83.1c0-38.4-22.5-71.5-55.1-86.9C124.9,3.5,110.7,0,97.1,0z"/>
<path class="st0" d="M94.9,192.1c40.9,0,65.4-33.9,62.8-67c-1.2-15-8.5-29.5-20.7-40.8c-4.5-4.2-9.4-7.7-14.5-10.4
	c3.9,4.6,6.6,10.3,7.6,16.6c2.7,16.7-8.3,41.2-36.3,41.2c-30.2,0-63.4-28.7-66.2-64C25.9,46,34.1,26.5,47.9,13
	C19.2,29.6,0,60.6,0,96.1c0,38.4,22.5,71.5,55.1,86.9C67.1,188.7,81.3,192.1,94.9,192.1z"/>
</svg>
